<?xml version="1.0" standalone="no"?>
<!DOCTYPE svg PUBLIC "-//W3C//DTD SVG 20010904//EN"
 "http://www.w3.org/TR/2001/REC-SVG-20010904/DTD/svg10.dtd">
<svg version="1.0" xmlns="http://www.w3.org/2000/svg"
 width="500.000000pt" height="200.000000pt" viewBox="0 0 500.000000 200.000000"
 preserveAspectRatio="xMidYMid meet">

<g transform="translate(0.000000,200.000000) scale(0.100000,-0.100000)"
fill="#000000" stroke="none">
<path d="M908 1669 c-3 -8 -38 -12 -103 -13 -90 -1 -107 -4 -166 -32 -180 -85
-282 -283 -282 -549 -1 -244 95 -426 271 -512 73 -37 80 -38 181 -38 101 0
109 2 181 36 41 20 89 50 107 65 l32 29 -56 148 -56 148 -45 -51 c-76 -87
-149 -110 -212 -67 -64 43 -96 152 -87 292 7 102 24 151 64 191 64 64 157 53
238 -26 l41 -40 57 153 c31 83 58 158 59 164 2 8 -42 34 -102 63 -116 55 -117
55 -122 39z"/>
<path d="M1216 1653 c-7 -24 -56 -240 -56 -247 0 -3 14 -6 30 -6 l30 0 0 -435
0 -436 137 3 138 3 27 125 c15 69 27 128 28 133 0 4 -13 7 -30 7 l-30 0 0 435
0 435 -134 0 c-120 0 -135 -2 -140 -17z"/>
<path d="M3558 1502 l-138 -35 0 -49 c0 -33 -4 -48 -13 -48 -9 0 -24 -48 -45
-148 -18 -81 -32 -153 -32 -160 0 -8 17 -12 45 -12 l45 0 0 -80 c0 -44 -2 -80
-4 -80 -7 0 -286 331 -286 340 0 5 -10 12 -22 16 -13 4 -36 17 -53 29 -46 35
-108 63 -162 75 -26 6 -58 16 -71 22 -18 9 -28 9 -50 -4 -15 -8 -45 -19 -66
-23 -51 -9 -126 -46 -169 -85 -19 -16 -42 -30 -51 -30 -16 0 -24 -11 -30 -42
-2 -7 -13 -34 -25 -61 -12 -26 -27 -73 -33 -105 -5 -31 -15 -73 -20 -93 -8
-29 -7 -43 5 -65 8 -16 29 -59 45 -95 16 -37 45 -84 65 -105 19 -22 37 -49 41
-61 4 -14 18 -26 34 -29 15 -4 59 -17 99 -30 132 -44 276 -23 377 54 48 36 67
48 96 62 8 4 16 16 18 26 2 10 15 48 30 84 22 54 26 81 26 163 l1 99 33 -39
c19 -21 65 -75 103 -119 l69 -81 0 -142 0 -141 155 0 155 0 0 270 0 270 28 0
c27 0 27 1 63 160 l36 160 -64 0 -63 0 0 85 c0 75 -2 85 -17 84 -10 0 -80 -17
-155 -37z m132 -97 l0 -85 55 0 c63 0 59 14 30 -110 -7 -30 -16 -67 -19 -82
-5 -23 -12 -28 -36 -28 l-30 0 0 -196 c0 -166 -2 -195 -14 -191 -8 3 -26 -3
-39 -14 -14 -10 -30 -19 -35 -19 -5 0 -40 35 -76 78 l-66 77 0 133 0 132 -41
0 c-34 0 -40 3 -35 18 3 9 12 49 21 87 8 39 17 80 20 93 3 12 12 22 20 22 11
0 15 13 15 55 l0 54 43 11 c23 6 71 20 107 30 36 10 68 19 73 19 4 1 7 -37 7
-84z m-769 -95 c69 -24 141 -68 136 -84 -6 -18 -77 -19 -121 -2 -66 25 -112
77 -89 99 9 9 5 10 74 -13z m-158 -5 c9 -22 -59 -73 -120 -91 -98 -29 -132 -4
-61 43 82 56 170 79 181 48z m23 -332 c-2 -3 -57 42 -122 99 l-117 103 54 8
c64 9 127 38 160 73 l24 26 3 -153 c1 -83 1 -154 -2 -156z m149 227 c15 -6 48
-11 72 -12 24 0 43 -2 43 -4 0 -2 -18 -13 -41 -24 -22 -12 -76 -55 -120 -97
l-79 -76 0 147 0 146 48 -34 c26 -19 61 -40 77 -46z m149 -46 c47 -18 -27
-146 -79 -137 -32 7 -39 2 -148 -119 -114 -125 -125 -152 -79 -198 35 -34 73
-39 100 -12 9 10 60 66 112 125 85 97 96 106 107 91 7 -10 13 -24 13 -31 0
-12 -157 -196 -206 -240 -28 -25 -81 -30 -117 -12 -71 36 -106 108 -88 177 21
73 304 360 358 362 6 0 18 -3 27 -6z m-421 -112 c59 -51 107 -96 107 -99 0 -3
-16 -23 -36 -45 -61 -68 -77 -137 -49 -210 5 -11 -3 -19 -26 -27 -45 -15 -46
-15 -53 22 -12 61 -53 133 -101 175 l-47 41 26 31 c34 41 60 131 52 182 -8 49
-11 51 127 -70z m-152 71 c2 -56 -3 -89 -21 -129 -20 -47 -31 -57 -55 -47 -39
15 11 203 54 203 16 0 21 -7 22 -27z m637 -5 c11 -18 23 -45 27 -59 6 -24 4
-26 -20 -26 -15 0 -38 -12 -55 -28 -27 -26 -50 -27 -50 -1 0 7 14 25 30 41 19
18 33 43 36 67 4 21 8 38 9 38 2 0 12 -15 23 -32z m-138 -123 c11 -13 8 -21
-20 -50 -24 -24 -31 -38 -24 -45 8 -8 19 0 38 25 26 34 56 47 56 24 0 -13
-199 -239 -216 -246 -35 -13 -80 45 -62 81 14 25 198 226 208 226 4 0 13 -7
20 -15z m180 -42 c0 -59 -18 -142 -39 -181 -9 -16 -21 -22 -47 -22 -50 0 -53
22 -10 70 41 45 45 76 16 113 -20 25 -20 25 1 51 14 17 30 26 50 26 29 0 29
-1 29 -57z m-679 -120 c29 -31 57 -81 70 -125 7 -25 5 -30 -14 -37 -28 -11
-41 0 -88 72 -43 67 -58 115 -38 128 16 10 36 -1 70 -38z m562 -130 c5 -23 0
-33 -26 -57 -18 -15 -57 -40 -87 -55 -48 -22 -68 -26 -150 -26 -115 0 -191 23
-183 55 3 12 20 24 44 32 35 10 42 9 62 -9 36 -33 63 -43 114 -43 47 0 50 2
118 74 75 80 96 86 108 29z m477 -57 c0 -4 -11 -17 -25 -28 -14 -11 -25 -28
-25 -39 0 -14 -6 -19 -17 -17 -15 3 -18 17 -21 98 l-2 95 45 -50 c24 -27 44
-54 45 -59z"/>
<path d="M3870 1366 c0 -3 -16 -74 -35 -157 -19 -84 -35 -154 -35 -156 0 -2
16 -3 35 -3 l35 0 0 -147 c0 -163 8 -207 47 -253 44 -53 96 -73 206 -78 53 -3
97 -8 97 -13 0 -5 -11 -16 -25 -25 -36 -23 -126 -13 -218 26 -39 16 -72 28
-74 27 -9 -9 -61 -283 -55 -288 4 -4 48 -18 97 -30 74 -20 115 -24 235 -24
138 0 148 1 206 28 34 16 78 45 97 65 69 71 69 75 75 580 l4 452 -161 0 -161
0 0 -256 0 -255 -22 3 c-14 2 -25 13 -29 28 -4 14 -7 127 -8 253 l-1 227 -155
0 c-85 0 -155 -2 -155 -4z m270 -272 l0 -226 30 -29 c24 -25 37 -30 67 -27
l38 3 3 253 2 252 115 0 115 0 0 -413 c0 -453 -4 -489 -57 -539 -58 -54 -164
-88 -274 -88 -51 0 -205 25 -255 41 l-31 10 20 98 19 98 67 -23 c43 -16 89
-24 133 -24 57 0 71 4 97 26 40 33 51 77 51 197 0 96 -1 98 -22 95 -20 -3 -25
-15 -42 -90 l-19 -88 -77 0 c-98 0 -155 27 -185 85 -17 34 -20 65 -23 213 l-4
172 -24 0 c-29 0 -29 0 -2 127 l23 103 117 0 118 0 0 -226z"/>
<path d="M1833 1342 c-142 -57 -228 -187 -240 -362 -10 -133 34 -256 125 -352
74 -78 129 -101 258 -106 85 -3 214 10 214 23 0 2 11 56 25 121 14 64 24 118
22 120 -1 2 -25 -3 -52 -11 -26 -8 -85 -15 -130 -15 -93 0 -134 19 -168 78
l-19 32 201 0 201 0 0 63 c0 79 -31 202 -67 269 -34 63 -101 122 -160 142 -60
21 -157 20 -210 -2z m152 -225 c8 -13 18 -37 21 -55 l7 -32 -71 0 c-39 0 -74
5 -77 10 -10 15 14 78 33 90 31 17 71 11 87 -13z"/>
</g>
</svg>
