<?xml version="1.0" standalone="no"?>
<!DOCTYPE svg PUBLIC "-//W3C//DTD SVG 20010904//EN"
 "http://www.w3.org/TR/2001/REC-SVG-20010904/DTD/svg10.dtd">
<svg version="1.0" xmlns="http://www.w3.org/2000/svg"
 width="2048.000000pt" height="2048.000000pt" viewBox="0 0 2048.000000 2048.000000"
 preserveAspectRatio="xMidYMid meet">

<g transform="translate(0.000000,2048.000000) scale(0.100000,-0.100000)"
fill="#000000" stroke="none">
<path d="M4840 11640 l-22 -47 -91 20 c-129 27 -313 19 -447 -18 -433 -121
-760 -503 -885 -1031 -45 -189 -58 -326 -52 -579 4 -183 9 -253 27 -340 64
-323 206 -597 407 -789 99 -95 171 -146 283 -205 366 -190 774 -169 1140 59
111 68 242 170 238 185 -8 35 -304 815 -309 815 -3 0 -27 -32 -54 -71 -142
-207 -295 -310 -465 -313 -66 -1 -83 3 -142 32 -78 38 -125 88 -174 184 -74
146 -99 308 -91 591 4 162 9 207 30 288 48 183 117 283 235 341 64 32 71 33
182 33 95 -1 125 -5 171 -23 77 -31 177 -108 246 -192 32 -38 61 -66 64 -62 4
4 79 198 167 432 88 234 163 432 167 441 4 12 -4 20 -32 32 -21 9 -158 72
-304 140 l-267 125 -22 -48z"/>
<path d="M5685 11648 c-5 -15 -165 -715 -165 -723 0 -3 38 -5 85 -5 l85 0 0
-1175 0 -1175 370 0 370 0 5 23 c3 12 39 173 79 357 l73 335 -79 3 -78 3 0
1184 0 1185 -370 0 c-288 0 -372 -3 -375 -12z"/>
<path d="M12220 11243 c-157 -39 -349 -88 -427 -109 l-142 -37 -3 -131 -3
-131 -30 -5 -30 -5 -92 -425 c-50 -234 -92 -426 -92 -427 -1 -2 55 -3 124 -3
l125 0 0 -217 c0 -184 -2 -215 -14 -203 -58 64 -736 863 -756 892 -27 41 -67
68 -101 68 -12 0 -43 17 -68 38 -154 128 -359 221 -561 253 -49 8 -86 21 -106
36 -46 34 -113 32 -156 -6 -24 -20 -49 -31 -88 -36 -193 -26 -413 -131 -567
-269 -34 -31 -71 -56 -83 -56 -59 0 -112 -57 -114 -124 -1 -27 -21 -80 -59
-156 -66 -134 -102 -261 -119 -415 -6 -62 -17 -117 -25 -126 -8 -9 -18 -33
-24 -52 -11 -40 6 -94 40 -132 10 -11 31 -58 46 -105 63 -193 153 -346 278
-473 50 -51 69 -78 76 -109 6 -24 23 -54 40 -72 27 -27 39 -31 89 -32 43 -1
76 -10 133 -37 413 -195 927 -111 1234 202 40 41 56 51 83 51 73 0 124 52 124
127 0 33 11 69 39 127 45 91 83 207 104 321 17 88 20 316 5 395 -6 29 -9 55
-7 56 2 2 128 -142 280 -321 l277 -324 0 -380 0 -381 430 0 430 0 0 730 0 730
70 0 c39 0 70 2 70 3 0 2 43 192 95 421 52 230 95 422 95 427 0 5 -73 10 -162
11 l-163 3 -5 240 -5 241 -285 -73z m170 -308 l0 -225 150 0 c83 0 150 -3 150
-6 0 -7 -129 -574 -136 -596 -5 -15 -18 -18 -85 -18 l-79 0 0 -512 c0 -486 -1
-510 -17 -495 -10 8 -30 19 -46 22 -32 8 -54 -4 -140 -78 -50 -44 -60 -49 -71
-36 -8 8 -89 101 -180 208 l-166 194 0 349 0 348 -103 0 c-57 0 -106 2 -109 5
-2 3 25 142 61 310 l66 305 42 0 42 0 3 147 3 146 300 78 c165 43 303 78 308
78 4 1 7 -100 7 -224z m-2527 -255 c23 -49 17 -60 -60 -130 -105 -94 -255
-152 -428 -166 l-80 -6 -22 30 -23 31 43 34 c138 112 276 181 452 227 95 25
97 25 118 -20z m429 4 c103 -32 256 -111 330 -169 l56 -45 -17 -34 c-14 -30
-21 -34 -67 -39 -132 -14 -335 61 -449 164 -73 68 -78 78 -59 124 l15 38 54
-7 c30 -3 92 -18 137 -32z m-162 -186 c116 -93 261 -147 420 -157 l105 -6 -65
-34 c-158 -82 -303 -201 -462 -377 -61 -68 -112 -124 -114 -124 -2 0 -4 183
-4 408 l1 407 37 -40 c20 -22 57 -57 82 -77z m-190 -324 c0 -251 -4 -424 -9
-422 -5 2 -92 75 -193 163 -100 89 -243 212 -315 274 -73 62 -133 117 -133
122 0 5 22 9 49 9 66 0 200 26 277 54 94 34 195 100 255 165 30 32 57 59 62
60 4 0 7 -191 7 -425z m786 90 c50 -21 54 -28 54 -94 0 -88 -20 -119 -184
-298 -9 -9 -20 -8 -51 8 -49 25 -59 25 -109 0 -28 -13 -88 -72 -186 -182 -80
-89 -196 -218 -258 -287 -62 -68 -120 -138 -129 -155 -21 -40 -21 -142 0 -182
20 -39 90 -102 133 -120 38 -16 102 -18 137 -5 14 6 78 70 144 143 65 74 183
207 263 297 80 89 157 177 172 194 l27 32 30 -29 c38 -37 49 -87 28 -130 -8
-17 -66 -88 -128 -158 -63 -70 -181 -204 -264 -297 -184 -209 -210 -226 -338
-219 -103 6 -186 45 -263 124 -124 126 -154 312 -76 461 16 31 116 151 242
290 296 328 363 397 450 463 69 52 244 160 261 160 4 0 24 -7 45 -16z m-1332
-135 c304 -260 506 -440 506 -450 0 -6 -38 -51 -85 -100 -150 -158 -187 -234
-187 -389 0 -78 10 -126 47 -222 5 -11 0 -18 -17 -23 -13 -4 -58 -20 -102 -37
-43 -16 -82 -26 -86 -21 -4 4 -13 37 -20 73 -15 79 -54 199 -85 261 -49 96
-161 223 -252 286 -66 46 -68 68 -12 124 52 52 121 197 144 303 17 78 17 223
-1 284 -12 42 19 23 150 -89z m-288 91 c5 -5 25 -11 44 -13 32 -4 35 -7 43
-48 23 -123 -19 -323 -91 -435 -56 -87 -62 -90 -107 -59 -21 14 -44 25 -51 25
-42 0 20 291 96 457 38 82 47 92 66 73z m1802 -83 c37 -49 81 -145 96 -210 7
-29 7 -29 -32 -22 -72 12 -113 -8 -190 -90 -39 -41 -73 -75 -76 -75 -3 0 -22
16 -42 35 -42 41 -48 27 58 142 85 93 110 141 116 224 5 79 7 79 70 -4z m109
-309 c21 -17 17 -246 -6 -365 -20 -104 -56 -216 -92 -288 l-22 -43 -52 5 c-31
3 -61 1 -74 -6 -18 -10 -29 -8 -64 11 -23 13 -42 31 -42 39 0 9 41 62 90 118
100 112 114 137 115 199 0 53 -26 105 -79 156 l-40 39 60 66 c33 36 72 72 87
79 29 13 98 8 119 -10z m-469 -31 l32 -33 -90 -104 c-49 -57 -90 -106 -90
-110 0 -14 41 -43 48 -34 5 5 48 53 97 107 l88 98 31 -30 30 -31 -25 -27 c-14
-16 -63 -71 -110 -123 -76 -86 -140 -158 -366 -416 -89 -102 -115 -111 -193
-68 -79 43 -115 120 -87 185 13 30 475 556 529 602 32 27 70 21 106 -16z
m-1478 -333 c47 -32 152 -139 192 -197 53 -77 94 -167 114 -249 19 -77 15 -98
-21 -98 -14 0 -38 -6 -53 -14 -27 -14 -28 -13 -92 61 -36 41 -84 104 -108 141
-84 129 -161 321 -134 330 6 2 22 12 34 22 28 24 37 24 68 4z m1623 -388 c9
-6 17 -21 17 -34 0 -13 5 -44 12 -69 l11 -46 -49 -44 c-75 -67 -214 -157 -298
-192 -139 -58 -232 -75 -406 -74 -175 0 -280 21 -418 84 -63 28 -73 35 -68 53
3 12 6 31 6 42 0 18 17 28 95 58 52 20 103 36 113 36 10 0 29 -12 43 -26 13
-14 53 -45 89 -69 105 -68 211 -94 307 -75 110 23 135 43 341 277 l116 132 35
-21 c20 -12 44 -27 54 -32z m1254 -152 l52 -60 -75 -63 c-79 -67 -94 -96 -76
-143 l10 -28 -44 0 -44 0 0 250 0 251 63 -73 c34 -40 86 -100 114 -134z"/>
<path d="M12880 10825 c0 -2 -43 -193 -95 -424 -52 -231 -95 -422 -95 -425 0
-3 41 -6 90 -6 l90 0 0 -302 c0 -426 15 -565 77 -696 38 -81 138 -177 233
-224 126 -62 169 -69 427 -75 255 -6 244 -3 200 -67 -35 -50 -97 -70 -217 -70
-134 1 -223 23 -435 110 -88 36 -167 68 -175 70 -13 4 -29 -58 -95 -368 -43
-205 -80 -383 -83 -395 -4 -19 5 -24 77 -47 367 -116 818 -168 1098 -127 395
58 655 249 728 536 32 125 35 238 35 1373 l0 1142 -430 0 -430 0 -2 -692 -3
-693 -35 3 c-45 5 -78 26 -93 60 -8 20 -12 205 -15 675 l-3 647 -425 0 c-233
0 -424 -2 -424 -5z m733 -712 c3 -628 4 -636 50 -704 46 -68 192 -108 295 -80
l42 12 0 684 0 685 310 0 311 0 -4 -1132 c-3 -1020 -5 -1140 -20 -1203 -21
-87 -65 -177 -112 -233 -39 -45 -135 -117 -200 -150 -233 -116 -607 -135
-1045 -52 -95 18 -290 66 -297 74 -3 3 107 529 112 534 1 2 48 -15 103 -37
237 -95 475 -124 614 -76 63 22 131 84 162 148 46 94 57 171 63 449 l6 256
-46 7 c-82 13 -76 24 -132 -225 -28 -124 -55 -238 -59 -254 l-7 -29 -182 6
c-200 6 -269 19 -351 67 -80 46 -130 94 -165 160 -56 104 -62 166 -68 643 l-5
427 -74 0 c-72 0 -74 1 -69 23 3 12 32 141 65 287 33 146 62 275 65 288 l5 22
315 0 314 0 4 -597z"/>
<path d="M7527 10809 c-401 -52 -730 -404 -813 -869 -20 -114 -23 -343 -5
-450 63 -381 288 -717 577 -860 167 -84 427 -124 662 -102 125 11 339 47 358
60 11 7 158 662 150 669 -2 2 -44 -7 -92 -21 -245 -70 -521 -80 -669 -25 -76
28 -153 102 -199 188 -20 38 -36 74 -36 80 0 8 153 11 540 11 l540 0 0 110 c0
332 -86 641 -243 875 -53 79 -169 192 -241 234 -89 53 -202 89 -317 101 -112
11 -116 11 -212 -1z m184 -605 c51 -26 98 -121 114 -229 l7 -45 -202 0 -203 0
7 56 c13 108 80 212 152 234 34 11 87 4 125 -16z"/>
</g>
</svg>
